<svg id="Layer_1" data-name="Layer 1" xmlns="http://www.w3.org/2000/svg" viewBox="0 0 198.5 35.17"><defs><style>.cls-1{fill:#ede6d2;}</style></defs><title>florango-logo</title><path class="cls-1" d="M45.59,27.41A12.5,12.5,0,1,1,58.1,14.91,12.52,12.52,0,0,1,45.59,27.41Zm0-19.63a7.13,7.13,0,1,0,7.14,7.13A7.14,7.14,0,0,0,45.59,7.78Z" transform="translate(-0.94 -2.38)"/><path class="cls-1" d="M186.94,27.41a12.5,12.5,0,1,1,12.5-12.5A12.52,12.52,0,0,1,186.94,27.41Zm0-19.63a7.13,7.13,0,1,0,7.13,7.13A7.14,7.14,0,0,0,186.94,7.78Z" transform="translate(-0.94 -2.38)"/><path class="cls-1" d="M90.91,37.56c-4.74,0-8.64-1-11.58-2.82a13.26,13.26,0,0,1-4.76-5.09.35.35,0,0,0-.31-.18h-.08a16.79,16.79,0,0,1-4,.47H69a.35.35,0,0,0-.35.35v7.26H63.25v-34l2.52-.16c.69,0,1.37-.06,2-.06,9.3,0,13.38,4.25,15,6.78A12.53,12.53,0,0,1,83,22.82a13.25,13.25,0,0,1-3.51,4.09.37.37,0,0,0-.09.45c1.25,2.19,4.26,4.81,11.47,4.83h4.27v5.37ZM69,8.71a.34.34,0,0,0-.24.09.36.36,0,0,0-.11.25V24.24a.34.34,0,0,0,.35.34h1.24c3.64,0,6.6-1.58,8.13-4.35a7.14,7.14,0,0,0-.1-7.26C77.31,11.5,74.87,9,69,8.71Z" transform="translate(-0.94 -2.38)"/><path class="cls-1" d="M22.38,37.56V3.46h5.37V31.65a.35.35,0,0,0,.35.34H57v5.57Z" transform="translate(-0.94 -2.38)"/><rect class="cls-1" x="173.72" y="29.8" width="24.56" height="5.37"/><path class="cls-1" d="M.94,37.56V3.37H17.6V8.74h-11a.34.34,0,0,0-.34.34v7.48a.34.34,0,0,0,.34.34h7v5.37h-7a.35.35,0,0,0-.34.35V37.56Z" transform="translate(-0.94 -2.38)"/><path class="cls-1" d="M138.24,37.56a42.63,42.63,0,0,0-2.73-15.77,24,24,0,0,0-5.78-8.64,19.66,19.66,0,0,0-4.35-3.08.29.29,0,0,0-.16,0,.41.41,0,0,0-.18.05.34.34,0,0,0-.16.29V37.56h-5.37V2.89l3.11.51a22.64,22.64,0,0,1,10.77,5.82,28.14,28.14,0,0,1,4.22,5,.33.33,0,0,0,.28.16l.1,0a.33.33,0,0,0,.25-.33V3.46h5.37v34.1Z" transform="translate(-0.94 -2.38)"/><path class="cls-1" d="M107.36,37.56v-13a.35.35,0,0,0-.35-.34H95.54a.34.34,0,0,0-.34.32c-.07.85-.1,1.68-.11,2.87H89.72c.08-9.94,3.46-17.1,10.07-21.29A22.06,22.06,0,0,1,110,2.76l2.78-.1v34.9ZM107,8.73l-.09,0a16.64,16.64,0,0,0-4.46,2,15.21,15.21,0,0,0-5.95,7.59.33.33,0,0,0,0,.32.35.35,0,0,0,.28.15H107a.35.35,0,0,0,.35-.35V9.08a.35.35,0,0,0-.14-.28A.38.38,0,0,0,107,8.73Z" transform="translate(-0.94 -2.38)"/><path class="cls-1" d="M166.51,37.56a17.59,17.59,0,1,1,0-35.18h2V7.75h-2a12.21,12.21,0,0,0-3.12,24l.09,0a.34.34,0,0,0,.21-.08.34.34,0,0,0,.13-.27v-13h5.37V37.56Z" transform="translate(-0.94 -2.38)"/></svg>