<?xml version="1.0" standalone="no"?>
<!DOCTYPE svg PUBLIC "-//W3C//DTD SVG 20010904//EN"
 "http://www.w3.org/TR/2001/REC-SVG-20010904/DTD/svg10.dtd">
<svg version="1.0" xmlns="http://www.w3.org/2000/svg"
 width="2000.000000pt" height="537.000000pt" viewBox="0 0 2000.000000 537.000000"
 preserveAspectRatio="xMidYMid meet">
<metadata>
Created by potrace 1.15, written by Peter Selinger 2001-2017
</metadata>
<g transform="translate(0.000000,537.000000) scale(0.100000,-0.100000)"
fill="#EDE6D2" stroke="none">
<path d="M5559 3921 c-340 -72 -631 -353 -719 -696 -12 -44 -24 -129 -27 -190
-23 -464 287 -875 742 -981 117 -28 320 -26 439 4 332 83 590 332 692 668 25
81 27 104 28 254 1 142 -2 176 -22 248 -96 352 -378 621 -727 693 -117 24
-289 24 -406 0z m336 -406 c343 -88 513 -462 354 -778 -43 -84 -154 -194 -239
-235 -69 -34 -179 -62 -245 -62 -66 0 -172 27 -243 62 -80 39 -193 148 -235
225 -33 62 -67 189 -67 253 0 243 175 471 411 534 72 19 191 20 264 1z"/>
<path d="M14770 3924 c-261 -47 -515 -180 -705 -368 -122 -122 -183 -205 -260
-361 -107 -214 -152 -424 -142 -650 16 -352 144 -643 392 -890 161 -161 321
-261 528 -330 150 -49 262 -65 464 -65 l173 0 -2 728 -3 727 -202 3 -203 2 0
-497 c0 -274 -4 -504 -9 -512 -12 -18 -59 -9 -152 29 -306 126 -521 406 -570
740 -31 212 34 471 165 653 62 87 200 217 282 264 168 99 297 133 502 133
l132 0 0 205 0 205 -157 -1 c-87 -1 -192 -7 -233 -15z"/>
<path d="M16370 3921 c-362 -77 -656 -373 -731 -736 -89 -429 117 -857 508
-1054 549 -276 1210 38 1360 647 26 105 23 323 -5 436 -91 362 -385 643 -746
711 -105 20 -280 18 -386 -4z m334 -406 c199 -52 359 -219 401 -420 18 -88 18
-132 0 -218 -44 -209 -213 -378 -422 -422 -92 -20 -146 -19 -235 4 -106 27
-167 61 -247 136 -225 213 -230 555 -11 774 74 74 160 124 253 147 73 17 192
17 261 -1z"/>
<path d="M10610 3909 c-533 -69 -983 -367 -1233 -819 -130 -235 -215 -572
-233 -927 l-7 -133 205 0 205 0 6 111 c3 62 11 117 18 125 10 12 81 14 446 14
280 0 441 -4 454 -10 18 -10 19 -27 19 -510 l0 -500 205 0 205 0 0 1330 0
1330 -112 -1 c-62 -1 -142 -5 -178 -10z m-131 -463 c8 -9 11 -118 9 -382 l-3
-369 -408 -3 c-363 -2 -408 -1 -414 14 -8 21 59 167 120 261 59 91 237 273
320 327 79 51 198 111 282 140 83 30 80 30 94 12z"/>
<path d="M11420 2580 l0 -1320 205 0 205 0 0 1045 c0 922 2 1046 15 1051 35
14 238 -128 378 -265 385 -375 587 -923 623 -1683 l7 -148 203 0 204 0 0 1300
0 1300 -205 0 -205 0 -2 -412 c-3 -402 -4 -413 -22 -413 -13 0 -40 28 -80 83
-248 348 -625 622 -997 727 -62 17 -271 55 -306 55 l-23 0 0 -1320z"/>
<path d="M2350 2565 l0 -1305 205 0 205 0 2 578 3 577 280 5 280 5 3 203 2
202 -265 0 c-165 0 -274 4 -286 10 -18 10 -19 24 -19 303 0 215 3 296 12 305
9 9 119 12 435 12 l423 0 0 205 0 205 -640 0 -640 0 0 -1305z"/>
<path d="M7183 3863 l-63 -4 0 -1299 0 -1300 205 0 205 0 0 284 c0 250 2 285
16 290 9 3 63 6 122 6 58 0 151 7 206 17 64 10 101 13 103 6 13 -39 119 -181
182 -243 170 -169 389 -277 671 -331 98 -19 159 -23 423 -26 l307 -5 0 206 0
206 -247 0 c-350 0 -495 25 -683 118 -75 37 -111 62 -171 122 -42 41 -84 90
-94 109 l-17 33 73 67 c137 125 241 292 295 476 24 80 27 107 28 250 1 127 -3
175 -18 235 -45 176 -133 327 -263 451 -166 158 -361 254 -629 310 -81 17
-144 21 -344 23 -135 2 -273 1 -307 -1z m492 -414 c129 -18 225 -46 332 -99
263 -130 385 -378 313 -639 -25 -90 -45 -129 -105 -208 -123 -165 -340 -258
-581 -251 l-99 3 -3 590 c-1 325 0 596 3 603 5 15 40 15 140 1z"/>
<path d="M3990 2560 l0 -1300 1325 0 1325 0 0 210 0 210 -1108 0 c-848 0
-1111 3 -1120 12 -9 9 -12 265 -12 1090 l0 1078 -205 0 -205 0 0 -1300z"/>
<path d="M15637 1663 c-4 -3 -7 -96 -7 -205 l0 -198 940 0 940 0 0 205 0 205
-933 0 c-514 0 -937 -3 -940 -7z"/>
</g>
</svg>
