<?xml version="1.0" encoding="utf-8"?>
<!-- Generator: Adobe Illustrator 24.0.1, SVG Export Plug-In . SVG Version: 6.00 Build 0)  -->
<svg version="1.1" id="Layer_1" xmlns="http://www.w3.org/2000/svg" xmlns:xlink="http://www.w3.org/1999/xlink" x="0px" y="0px"
	 viewBox="0 0 128 128" style="enable-background:new 0 0 128 128;" xml:space="preserve">
<style type="text/css">
	.st0{fill:#231F20;}
</style>
<g>
	<path class="st0" d="M73.06,22.37c-0.04,0.25-0.07,0.49-0.12,0.74c-0.2,0.93-0.59,1.75-1.35,2.36c-0.1,0.08-0.18,0.17-0.27,0.26
		c-0.21,0.23-0.23,0.36-0.09,0.64c0.09,0.17,0.2,0.32,0.28,0.49c0.11,0.22,0.08,0.39-0.08,0.55c-0.12,0.12-0.32,0.14-0.52,0.05
		c-0.17-0.07-0.28-0.21-0.39-0.34c-0.1-0.13-0.19-0.26-0.28-0.4c-0.09-0.14-0.22-0.2-0.39-0.18c-0.18,0.02-0.2,0.15-0.25,0.28
		c-0.05,0.12-0.05,0.25-0.05,0.37c0.01,0.63-0.06,1.24-0.15,1.86c-0.17,1.19-0.71,2.15-1.72,2.83c-0.07,0.05-0.15,0.1-0.21,0.16
		c-0.19,0.18-0.29,0.38-0.21,0.67c0.19,0.66,0.35,1.33,0.52,1.99c0.13,0.51,0.27,1.01,0.4,1.52c0.09,0.34,0.27,0.58,0.66,0.61
		c0.16,0.01,0.32,0.04,0.48,0.04c0.74,0,1.48,0,2.22,0c0.73,0,1.45,0,2.18,0c0.25,0,0.5-0.03,0.75-0.07
		c0.22-0.03,0.37-0.15,0.45-0.35c0.06-0.14,0.1-0.28,0.15-0.42c0.27-0.9,0.54-1.79,0.81-2.69c0.05-0.18,0.09-0.36,0.09-0.55
		c0-0.23-0.07-0.38-0.28-0.48c-0.16-0.07-0.32-0.15-0.47-0.24c-0.4-0.22-0.78-0.46-1.09-0.79c-0.29-0.31-0.5-0.68-0.66-1.08
		c-0.16-0.4-0.24-0.81-0.21-1.25c0.03-0.35,0.23-0.55,0.58-0.57c0.1-0.01,0.21-0.02,0.3,0.01c0.41,0.11,0.82,0.05,1.23,0.07
		c0.26,0.02,0.5-0.05,0.74-0.1c0.24-0.05,0.41-0.21,0.48-0.47c0.08-0.29,0.06-0.57,0.03-0.86c-0.04-0.48-0.09-0.97-0.13-1.45
		c-0.01-0.11,0.01-0.22,0.05-0.31c0.49-0.24,1.41-0.69,1.33-0.8c-0.1-0.14-1.29-2.23-1.45-2.79c-0.1-0.39-0.22-0.77-0.36-1.14
		c-0.04-0.11-0.1-0.2-0.17-0.29c-0.16-0.19-0.25-0.2-0.43-0.04c-0.07,0.07-0.15,0.14-0.21,0.22c-0.45,0.6-0.99,1.09-1.72,1.34
		C73.29,21.86,73.1,22.07,73.06,22.37z M73.98,23.16c0.04-0.1,0.1-0.2,0.17-0.29c0.33-0.37,0.72-0.65,1.18-0.84
		c0.1-0.04,0.19-0.06,0.28-0.06c0.39,0,0.56,0.17,0.48,0.54c-0.06,0.3-0.07,0.59,0,0.89c0.09,0.38-0.27,0.64-0.6,0.49
		c-0.32-0.14-0.66-0.2-1.02-0.12C74.1,23.86,73.85,23.53,73.98,23.16z"/>
	<path class="st0" d="M63.97,24.07c0.08,0.01,0.15-0.01,0.22-0.02c0.64-0.13,1.25-0.34,1.86-0.57c0.61-0.23,1.18-0.54,1.65-1.01
		c0.45-0.45,0.78-0.97,1.01-1.56c0.3-0.77,0.59-1.54,0.88-2.31c0.04-0.1,0.07-0.21,0.1-0.29c0.02-0.19-0.03-0.26-0.19-0.28
		c-0.11-0.01-0.22,0-0.33,0.05c-0.17,0.08-0.35,0.15-0.51,0.24c-1.13,0.6-2,1.48-2.72,2.52c-0.54,0.78-1.05,1.58-1.66,2.31
		c-0.17,0.2-0.36,0.39-0.47,0.63C63.74,23.93,63.81,24.04,63.97,24.07z"/>
	<path class="st0" d="M46.51,106.94c-0.59-0.94-1.4-1.66-2.28-2.31c-0.92-0.7-1.93-1.25-2.97-1.75c-1.31-0.64-2.67-1.15-4.08-1.48
		c-1.26-0.3-2.4-0.84-3.45-1.59c-1.32-0.94-2.55-1.98-3.77-3.02c-0.54-0.46-1.08-0.93-1.58-1.44c-0.6-0.6-1.26-1.15-1.85-1.76
		c-0.76-0.78-1.54-1.54-2.31-2.32c-0.09-0.09-0.18-0.17-0.26-0.27c-0.42-0.55-0.97-0.97-1.39-1.52c-0.2-0.26-0.44-0.48-0.64-0.74
		c-0.18-0.24-0.39-0.46-0.52-0.73c-0.2-0.39-0.15-0.72,0.15-1.03c0.31-0.32,0.7-0.53,1.1-0.71c0.82-0.37,1.64-0.74,2.48-1.08
		c1.14-0.46,2.28-0.9,3.43-1.32c1.55-0.58,3.1-1.13,4.65-1.7c0.61-0.22,1.24-0.4,1.83-0.67c0.13-0.06,0.33-0.09,0.29-0.29
		c-0.04-0.17-0.23-0.18-0.37-0.2c-0.41-0.06-0.81-0.12-1.22-0.15c-0.6-0.04-1.19-0.14-1.78-0.26c-1.2-0.23-2.39-0.54-3.54-0.95
		c-0.31-0.11-0.61-0.23-0.91-0.35c-0.37-0.14-0.72-0.17-1.09,0.02c-0.31,0.17-0.63,0.32-0.94,0.47c-1.17,0.6-2.32,1.24-3.44,1.92
		c-1.49,0.89-2.95,1.83-4.32,2.91c-0.6,0.47-1.19,0.96-1.7,1.53c-0.2,0.22-0.38,0.47-0.52,0.74c-0.13,0.26-0.13,0.5,0.02,0.75
		c0.17,0.28,0.36,0.54,0.59,0.77c0.47,0.48,0.96,0.96,1.43,1.44c0.15,0.15,0.3,0.31,0.46,0.45c0.55,0.49,1.11,0.97,1.67,1.45
		c0.41,0.35,0.81,0.71,1.22,1.05c0.54,0.45,1.08,0.89,1.62,1.33c0.48,0.4,0.97,0.79,1.45,1.18c0.55,0.45,1.11,0.89,1.67,1.34
		c0.66,0.53,1.32,1.06,1.99,1.59c0.67,0.54,1.35,1.06,2.03,1.6c0.75,0.6,1.51,1.19,2.26,1.79c0.58,0.46,1.16,0.91,1.73,1.38
		c0.49,0.39,0.96,0.8,1.45,1.19c0.48,0.4,0.89,0.84,1.19,1.38c0.18,0.33,0.37,0.65,0.56,0.97c0.76,1.28,1.7,2.41,2.87,3.34
		c1.02,0.82,2.19,1.28,3.5,1.39c0.31,0.03,0.63,0.01,0.93-0.08c0.27-0.08,0.37-0.23,0.32-0.5c-0.01-0.06-0.04-0.12-0.06-0.18
		c-0.31-0.72-0.75-1.36-1.28-1.93c-0.45-0.48-0.96-0.87-1.5-1.24c-0.16-0.11-0.3-0.22-0.43-0.36c-0.14-0.16-0.15-0.4-0.04-0.56
		c0.12-0.17,0.27-0.23,0.5-0.15c0.19,0.06,0.38,0.14,0.55,0.24c0.53,0.31,1.09,0.56,1.66,0.78c0.69,0.26,1.38,0.51,2.14,0.52
		c0.14,0,0.28,0.01,0.41,0c0.27-0.03,0.34-0.13,0.31-0.4C46.7,107.24,46.6,107.09,46.51,106.94z"/>
	<path class="st0" d="M68.07,30.08c0.33-0.61,0.39-1.28,0.47-1.87c0-0.13,0-0.18,0-0.23c-0.02-0.33-0.16-0.44-0.49-0.39
		c-0.05,0.01-0.1,0.02-0.14,0.04c-1.06,0.45-2.19,0.69-3.29,1.02c-1.07,0.32-2.11,0.7-3.01,1.4c-0.98,0.76-1.41,1.79-1.53,2.98
		c-0.04,0.4,0.2,0.58,0.58,0.47c0.58-0.16,1.13-0.4,1.71-0.57c0.47-0.14,0.87-0.37,1.18-0.75c0.11-0.13,0.25-0.21,0.41-0.24
		c0.19-0.04,0.39-0.08,0.59-0.1c0.75-0.08,1.48-0.23,2.17-0.55C67.29,31.02,67.77,30.65,68.07,30.08z"/>
	<path class="st0" d="M49.1,65.67c0.15-0.79,0.31-1.59,0.42-2.39c0.06-0.43,0.12-0.86,0.16-1.3c0.05-0.51,0.12-1.01,0.13-1.53
		c0.01-0.38,0-0.75,0-1.13c0-0.33-0.06-0.65-0.13-0.96c-0.1-0.47-0.33-0.89-0.56-1.31c-0.66-1.21-1.57-2.19-2.73-2.94
		c-0.08-0.05-0.17-0.11-0.26-0.15c-0.31-0.13-0.51-0.02-0.57,0.32c-0.02,0.1-0.01,0.2-0.01,0.3c0.04,1.39-0.01,2.78,0.05,4.17
		c0.06,1.36,0.07,2.73,0.1,4.09c0.01,0.46,0,0.93,0,1.56c-0.04,0.81,0.04,1.8-0.06,2.79c-0.06,0.63-0.08,1.27-0.17,1.9
		c-0.1,0.75-0.35,1.43-0.88,1.99c-0.46,0.49-0.98,0.93-1.52,1.34c-0.81,0.61-1.66,1.16-2.52,1.69c-0.2,0.12-0.4,0.26-0.59,0.4
		c-0.1,0.07-0.22,0.15-0.18,0.3c0.04,0.15,0.19,0.15,0.31,0.18c0.09,0.03,0.2,0.02,0.3,0.03c0.33,0.04,0.64-0.1,0.97-0.07
		c0.34,0.02,0.67-0.05,1-0.11c0.63-0.1,1.24-0.28,1.85-0.45c0.95-0.27,1.92-0.45,2.92-0.42c0.1,0,0.2,0.01,0.3-0.01
		c0.34-0.04,0.53-0.22,0.56-0.56c0.02-0.2,0.02-0.4-0.01-0.6c-0.11-0.79-0.11-1.58,0.05-2.35C48.38,68.86,48.78,67.27,49.1,65.67z"
		/>
	<path class="st0" d="M56.18,34.41c0.07,0.37,0.29,0.5,0.66,0.42c0.09-0.02,0.17-0.05,0.25-0.08c0.4-0.14,0.8-0.28,1.2-0.42
		c0.13-0.05,0.26-0.09,0.38-0.15c0.26-0.12,0.39-0.33,0.39-0.63c-0.01-0.43,0.07-0.84,0.14-1.26c0.27-1.48,1.07-2.59,2.33-3.38
		c1.05-0.67,2.22-1.03,3.4-1.36c0.67-0.19,1.35-0.35,2.01-0.59c0.52-0.19,1.05-0.37,1.42-0.8c0.37-0.42,0.79-0.72,1.36-0.79
		c0.01,0,0.02,0,0.04-0.01c1.05-0.33,1.77-0.99,2.11-2.06c0.15-0.47,0.21-0.95,0.21-1.44c-0.01-0.57,0.21-0.82,0.77-0.93
		c0.88-0.17,1.47-0.7,1.85-1.5c0.14-0.29,0.09-0.53-0.14-0.75c-0.1-0.1-0.19-0.2-0.31-0.27c-0.41-0.21-0.81-0.45-1.27-0.56
		c-0.28-0.07-0.56-0.16-0.85-0.12c-0.7,0.11-1.22,0.47-1.55,1.11c-0.24,0.46-0.4,0.94-0.58,1.42c-0.2,0.55-0.4,1.1-0.68,1.62
		c-0.5,0.93-1.19,1.66-2.14,2.15c-0.64,0.33-1.31,0.57-1.99,0.76c-1.17,0.33-2.34,0.64-3.5,0.97c-1.09,0.31-2.12,0.75-3.08,1.35
		c-0.74,0.47-1.35,1.07-1.81,1.82c-0.62,1.04-0.82,2.19-0.85,3.38c0,0.22,0.07,0.44,0.06,0.67C55.99,33.48,56.1,33.94,56.18,34.41z"
		/>
	<path class="st0" d="M18.77,42.38c0.55,0.94,1.14,1.85,1.83,2.7c0.44,0.55,0.88,1.09,1.4,1.56c0.3,0.28,0.61,0.55,0.93,0.82
		c0.88,0.74,1.87,1.31,2.91,1.77c1.61,0.71,3.32,0.97,5.07,1.03c0.71,0.03,1.42-0.08,2.13-0.13c0.47-0.04,0.94-0.11,1.41-0.19
		c0.79-0.13,1.56-0.32,2.34-0.52c1.22-0.32,2.38-0.76,3.44-1.45c1.01-0.66,1.9-1.45,2.66-2.4c0.99-1.24,1.7-2.62,2.18-4.12
		c0.26-0.82,0.46-1.66,0.55-2.52c0.06-0.57,0.12-1.14,0.14-1.72c0.01-0.24-0.08-0.47-0.07-0.71c0.01-0.58-0.11-1.14-0.24-1.7
		c-0.2-0.91-0.54-1.77-0.99-2.59c-0.24-0.45-0.48-0.53-0.96-0.34c-0.08,0.03-0.16,0.07-0.23,0.12c-0.22,0.14-0.3,0.33-0.24,0.58
		c0.03,0.13,0.09,0.26,0.14,0.39c0.53,1.32,0.81,2.7,0.83,4.37c0.02,0.41-0.06,1.06-0.18,1.69c-0.24,1.31-0.7,2.55-1.37,3.71
		c-0.75,1.3-1.74,2.38-2.9,3.31c-0.99,0.79-2.12,1.38-3.31,1.82c-1.18,0.44-2.4,0.69-3.65,0.77c-0.93,0.06-1.87,0.03-2.8-0.13
		c-1.13-0.19-2.22-0.5-3.26-0.98c-1.92-0.88-3.53-2.16-4.86-3.8c-0.81-1.01-1.5-2.09-2.08-3.25c-0.2-0.39-0.36-0.8-0.53-1.2
		c-0.2-0.46-0.43-0.54-0.85-0.28c-0.13,0.08-0.25,0.16-0.38,0.25c-0.34,0.24-0.42,0.49-0.23,0.87
		C17.96,40.89,18.34,41.65,18.77,42.38z"/>
	<path class="st0" d="M42.16,31.31c0.1,0,0.2-0.02,0.29-0.05c0.22-0.07,0.41-0.18,0.62-0.27c0.31-0.14,0.61-0.29,0.94-0.38
		c0.23-0.06,0.42,0,0.59,0.15c0.11,0.1,0.22,0.21,0.3,0.33c0.39,0.58,0.7,1.21,0.97,1.86c0.25,0.6,0.42,1.23,0.58,1.86
		c0.08,0.33,0.25,0.59,0.54,0.78c0.09,0.06,0.18,0.13,0.27,0.2c2.01,1.37,4.1,2.59,6.3,3.63c0.59,0.28,1.17,0.34,1.81,0.2
		C56.6,39.34,57.8,39,59,38.66c0.96-0.28,1.92-0.57,2.87-0.87c0.64-0.2,1.29-0.4,1.93-0.62c0.4-0.13,0.45-0.23,0.45-0.7
		c0-0.03,0-0.13-0.03-0.22c-0.1-0.46-0.21-0.92-0.32-1.39c-0.06-0.27-0.11-0.54-0.19-0.8c-0.1-0.32-0.27-0.4-0.6-0.33
		c-0.17,0.03-0.34,0.09-0.5,0.15c-2.4,0.83-4.8,1.65-7.2,2.48c-0.39,0.13-0.75,0.14-1.13-0.03c-0.71-0.31-1.43-0.61-2.14-0.92
		c-1.39-0.61-2.77-1.22-4.16-1.83c-0.39-0.17-0.71-0.41-0.92-0.79c-0.4-0.71-0.8-1.41-1.21-2.12c-0.19-0.33-0.37-0.65-0.56-0.97
		c-0.16-0.27-0.41-0.36-0.71-0.29c-0.1,0.02-0.19,0.06-0.29,0.09c-0.6,0.21-1.2,0.43-1.8,0.64c-0.2,0.07-0.39,0.17-0.54,0.33
		c-0.13,0.14-0.18,0.3-0.16,0.48C41.82,31.19,41.94,31.3,42.16,31.31z"/>
	<path class="st0" d="M19.03,45.63c0.34-0.16,0.39-0.38,0.2-0.7c-0.04-0.08-0.09-0.15-0.14-0.22c-0.72-1.04-1.37-2.12-1.94-3.25
		c-0.15-0.3-0.32-0.6-0.47-0.9c-0.15-0.31-0.43-0.4-0.75-0.23c-0.48,0.25-0.94,0.53-1.39,0.82c-0.55,0.37-1.08,0.77-1.53,1.26
		c-0.22,0.24-0.42,0.5-0.55,0.8c-0.13,0.3,0.01,0.47,0.32,0.43c0.06-0.01,0.12-0.04,0.18-0.05c0.46-0.11,0.84-0.38,1.22-0.64
		c0.12-0.08,0.25-0.17,0.38-0.23c0.22-0.1,0.39-0.04,0.55,0.18c0.13,0.18,0.13,0.31-0.03,0.51c-0.04,0.05-0.08,0.09-0.13,0.14
		c-0.52,0.52-1.15,0.83-1.84,1.04c-0.26,0.08-0.53,0.15-0.8,0.21c-0.32,0.07-0.44,0.3-0.48,0.6c-0.01,0.09,0,0.18,0,0.26
		c0.05,0.66,0.14,1.31,0.33,1.95c0.02,0.07,0.06,0.14,0.09,0.21c0.08,0.17,0.22,0.27,0.42,0.27c0.13,0.01,0.25-0.01,0.37-0.04
		c0.62-0.14,1.23-0.35,1.81-0.6c1.06-0.45,2.11-0.93,3.16-1.39C18.37,45.91,18.71,45.79,19.03,45.63z"/>
	<path class="st0" d="M33.92,43.22c0.35-0.09,0.7-0.17,1.05-0.28c0.97-0.31,1.9-0.7,2.79-1.19c0.8-0.45,1.55-0.96,2.23-1.57
		c1.09-0.97,1.97-2.13,2.6-3.45c0.22-0.47,0.38-0.94,0.23-1.48c-0.14-0.52-0.22-1.05-0.45-1.54c-0.05-0.1-0.09-0.2-0.18-0.28
		c-0.12-0.11-0.23-0.1-0.29,0.05c-0.07,0.17-0.13,0.35-0.17,0.53c-0.14,0.55-0.3,1.08-0.54,1.6c-0.61,1.32-1.42,2.48-2.56,3.43
		c-0.97,0.81-2.05,1.43-3.21,1.9c-0.5,0.2-1.01,0.36-1.53,0.51c-0.3,0.08-0.46,0.27-0.53,0.57c-0.05,0.2-0.06,0.39-0.06,0.59
		c0,0.05,0,0.1,0,0.15C33.3,43.22,33.43,43.34,33.92,43.22z"/>
	<path class="st0" d="M21.86,42.41c0.44,0.62,0.95,1.2,1.47,1.75c0.32,0.33,0.68,0.63,1.04,0.92c1.18,0.95,2.49,1.66,3.95,2.11
		c0.69,0.21,1.41,0.33,2.12,0.45c0.32,0.05,0.62-0.11,0.76-0.41c0.07-0.16,0.13-0.33,0.18-0.49c0.26-0.81,0.49-1.63,0.65-2.46
		c0.19-0.98,0.35-1.96,0.32-2.97c-0.01-0.38-0.01-0.75,0-1.13c0.02-0.59-0.09-1.17-0.18-1.75c-0.14-0.85-0.36-1.68-0.63-2.5
		c-0.12-0.35-0.11-0.69,0.06-1.02c0.04-0.09,0.07-0.19,0.11-0.28c0.21-0.46,0.29-0.95,0.25-1.46c0-0.21,0.02-0.43-0.01-0.64
		c-0.03-0.23-0.11-0.46-0.18-0.69c-0.18-0.54-0.43-0.85-1.12-0.65c-0.04,0.01-0.08,0-0.11,0.01c-0.91,0.23-1.57,0.74-1.88,1.66
		c-0.09,0.27-0.13,0.56-0.19,0.84c-0.11,0.49-0.29,0.63-0.75,0.59c-0.14-0.01-0.27-0.03-0.41-0.06c-0.35-0.09-0.71-0.16-1.07-0.17
		c-0.55-0.01-1.1,0.09-1.62,0.25c-1.09,0.32-2.06,0.9-2.96,1.58c-0.54,0.41-1.04,0.87-1.52,1.33c-0.49,0.47-0.6,0.68-0.31,1.4
		C20.37,39.95,21.03,41.23,21.86,42.41z M22.75,37.65c0.48-0.36,1.04-0.53,1.64-0.55c0.25-0.01,0.5,0,0.75,0
		c0.1,0,0.2,0.01,0.29,0.05c0.19,0.09,0.35,0.27,0.32,0.42c-0.03,0.2-0.15,0.34-0.34,0.42c-0.1,0.04-0.19,0.04-0.29,0.05
		c-0.1,0-0.2,0-0.3,0.04c-0.26,0.09-0.34,0.23-0.29,0.51c0.06,0.34,0.04,0.67-0.15,0.97c-0.24,0.39-0.58,0.61-1.04,0.59
		c-0.74,0.04-1.24-0.49-1.28-1.19C22.04,38.43,22.31,37.97,22.75,37.65z"/>
	<path class="st0" d="M75.61,47.23c0.01-0.17,0.01-0.35,0-0.53c-0.03-0.42-0.26-0.62-0.68-0.53c-0.48,0.11-0.96,0.17-1.44,0.19
		c-0.92,0.05-1.85,0.07-2.77-0.07c-0.93-0.14-1.84-0.34-2.71-0.7c-0.27-0.11-0.53-0.22-0.8-0.32c-0.15-0.06-0.32-0.09-0.47,0.01
		c-0.43,0.25-0.45,0.93-0.04,1.2c0.08,0.05,0.17,0.1,0.26,0.14c1.86,0.92,3.83,1.34,6.02,1.39c0.38,0.06,0.87-0.09,1.37-0.1
		c0.28-0.01,0.57-0.04,0.85-0.14C75.48,47.68,75.59,47.55,75.61,47.23z"/>
	<path class="st0" d="M86.36,33.1c-0.28-0.08-0.48,0-0.62,0.28c-0.07,0.14-0.13,0.3-0.18,0.45c-1.6,4.75-3.19,9.51-4.78,14.26
		c-0.39,1.15-0.77,2.3-1.15,3.46c-0.05,0.17-0.1,0.34-0.13,0.51c-0.03,0.19,0.11,0.29,0.28,0.21c0.12-0.06,0.24-0.14,0.34-0.23
		c0.56-0.48,0.97-1.07,1.2-1.78c0.52-1.59,1.06-3.18,1.59-4.77c0.63-1.9,1.26-3.8,1.89-5.69c0.64-1.91,1.29-3.82,1.93-5.73
		c0.04-0.13,0.1-0.26,0.08-0.39C86.86,33.38,86.62,33.17,86.36,33.1z"/>
	<path class="st0" d="M91.09,43.33c1.73,1.33,3.68,2.21,5.77,2.81c1.11,0.32,2.23,0.53,3.37,0.69c0.59,0.08,1.19,0.17,1.78,0.19
		c0.76,0.03,1.52,0.15,2.14,0.1c0.62-0.01,1.1,0.03,1.57-0.08c0.31-0.07,0.36-0.2,0.15-0.43c-0.21-0.24-0.48-0.4-0.73-0.59
		c-1.75-1.28-3.6-2.4-5.52-3.41c-2.04-1.07-4.14-2.01-6.31-2.79c-1.75-0.63-3.54-1.16-5.35-1.6c-0.15-0.03-0.3-0.06-0.44-0.07
		c-0.25-0.01-0.36,0.15-0.3,0.39c0.03,0.12,0.08,0.24,0.13,0.35c0.6,1.24,1.44,2.31,2.41,3.28C90.17,42.6,90.62,42.97,91.09,43.33z"
		/>
	<path class="st0" d="M94.7,23.27c-2.01,0.48-3.72,1.5-5.13,3.01c-0.15,0.16-0.26,0.34-0.29,0.56c-0.05,0.37-0.11,0.74-0.08,1.12
		c0.03,0.37-0.05,0.72-0.1,1.08c-0.13,0.94-0.33,1.87-0.61,2.77c-0.04,0.14-0.05,0.27-0.04,0.41c0.01,0.22,0.08,0.29,0.3,0.38
		c0.24,0.09,0.49,0.07,0.74,0.07c0.26,0,0.52-0.04,0.78-0.06c0.64-0.06,1.25-0.23,1.85-0.46c1.11-0.43,2.07-1.1,2.94-1.9
		c0.8-0.74,1.49-1.58,2.12-2.47c0.77-1.1,1.42-2.27,1.99-3.48c0.1-0.2,0.17-0.42,0.24-0.63c0.09-0.27,0.01-0.42-0.26-0.52
		c-0.25-0.09-0.51-0.14-0.77-0.14c-0.54,0.01-1.07-0.05-1.61-0.02C96.06,23.01,95.38,23.1,94.7,23.27z"/>
	<path class="st0" d="M93.64,35.85c-0.44,0.08-1,0.08-1.56,0.15c-1.1,0.13-2.15,0.42-3.2,0.78c-0.11,0.04-0.21,0.09-0.3,0.16
		c-0.18,0.13-0.18,0.28,0.01,0.37c0.16,0.08,0.33,0.13,0.5,0.17c0.92,0.24,1.83,0.5,2.74,0.79c2.25,0.73,4.45,1.6,6.57,2.64
		c1.35,0.66,2.68,1.36,3.97,2.13c1.11,0.66,2.17,1.38,3.24,2.1c0.12,0.08,0.23,0.15,0.37,0.18c0.16,0.03,0.25-0.05,0.22-0.2
		c-0.05-0.22-0.14-0.43-0.25-0.62c-0.29-0.48-0.56-0.98-0.86-1.45c-0.54-0.85-1.15-1.66-1.81-2.43c-0.6-0.7-1.24-1.34-1.95-1.92
		c-0.9-0.74-1.88-1.36-2.95-1.84C96.9,36.19,95.36,35.92,93.64,35.85z"/>
	<path class="st0" d="M79.55,58.6c-0.05,0.16-0.08,0.32-0.05,0.48c0.03,0.16,0.11,0.21,0.27,0.15c0.17-0.06,0.31-0.16,0.44-0.28
		c0.38-0.35,0.61-0.79,0.75-1.28c0.16-0.54,0.4-1.05,0.72-1.52c0.09-0.13,0.17-0.28,0.23-0.43c0.32-0.79,0.52-1.62,0.62-2.46
		c0.06-0.52,0.19-1,0.48-1.44c0.49-0.74,0.93-1.51,1.35-2.3c0.59-1.13,1.16-2.27,1.63-3.46c0.49-1.23,0.9-2.49,1.19-3.78
		c0.08-0.34,0.12-0.69,0.18-1.03c0.01-0.21-0.05-0.4-0.14-0.58c-0.09-0.19-0.21-0.37-0.32-0.55c-0.14-0.24-0.27-0.48-0.43-0.7
		c-0.17-0.24-0.35-0.22-0.48,0.05c-0.08,0.16-0.14,0.32-0.2,0.49c-0.38,1.11-0.75,2.23-1.12,3.34c-0.85,2.55-1.71,5.09-2.56,7.64
		c-0.17,0.51-0.45,0.94-0.83,1.32c-0.43,0.42-0.85,0.85-1.28,1.27c-0.19,0.19-0.35,0.4-0.47,0.63c-0.22,0.42-0.28,0.85-0.04,1.29
		c0.12,0.22,0.23,0.45,0.34,0.67c0.19,0.38,0.24,0.77,0.13,1.2C79.84,57.75,79.67,58.17,79.55,58.6z"/>
	<path class="st0" d="M81.22,23.27c0.02,0.43,0.01,0.93,0.06,1.43c0.09,0.81,0.22,1.61,0.47,2.38c0.33,1.07,0.86,2.05,1.59,2.91
		c0.78,0.9,1.76,1.51,2.84,1.98c0.19,0.09,0.39,0.16,0.6,0.21c0.33,0.09,0.53-0.01,0.66-0.32c0.06-0.14,0.1-0.28,0.14-0.43
		c0.22-0.74,0.4-1.5,0.51-2.26c0.09-0.63,0.18-1.26,0.17-1.9c-0.01-0.49-0.01-0.97-0.06-1.46c-0.06-0.56-0.14-1.12-0.28-1.66
		c-0.62-2.49-2.05-4.44-4.08-5.98c-0.33-0.25-0.67-0.48-1.03-0.68c-0.47-0.27-0.68-0.19-0.84,0.31c-0.06,0.17-0.1,0.33-0.14,0.5
		c-0.2,0.89-0.39,1.78-0.47,2.69c-0.05,0.51-0.14,1.01-0.13,1.52C81.22,22.75,81.22,22.98,81.22,23.27z"/>
	<path class="st0" d="M79.08,38.01c0.92,0.51,1.85,1,2.77,1.5c0.08,0.04,0.16,0.07,0.24,0.1c0.25,0.08,0.4,0.02,0.53-0.21
		c0.03-0.04,0.05-0.09,0.06-0.14c0.23-0.68,0.46-1.35,0.67-2.03c0.1-0.33,0.02-0.55-0.26-0.75c-0.05-0.04-0.1-0.07-0.16-0.1
		c-0.96-0.59-1.91-1.19-2.87-1.78c-0.09-0.05-0.17-0.1-0.27-0.12c-0.22-0.06-0.37-0.01-0.46,0.19c-0.04,0.09-0.07,0.19-0.1,0.28
		c-0.15,0.57-0.29,1.14-0.44,1.71c-0.06,0.22-0.14,0.43-0.15,0.74C78.6,37.68,78.81,37.86,79.08,38.01z"/>
	<path class="st0" d="M89.01,24.55c0.09,0.39,0.36,0.45,0.67,0.23c0.02-0.01,0.04-0.03,0.06-0.05c0.75-0.62,1.55-1.17,2.43-1.6
		c0.1-0.05,0.19-0.11,0.28-0.18c0.15-0.11,0.22-0.27,0.19-0.46c-0.02-0.12-0.04-0.24-0.09-0.36c-0.2-0.55-0.5-1.04-0.86-1.49
		c-0.25-0.31-0.5-0.62-0.94-0.71c-0.2-0.04-0.37,0.02-0.55,0.05c-0.75,0.11-1.44,0.4-2.07,0.83c-0.16,0.11-0.23,0.26-0.23,0.51
		c0,0.07,0.06,0.18,0.11,0.29c0.19,0.46,0.42,0.91,0.58,1.38C88.77,23.51,88.9,24.03,89.01,24.55z"/>
	<path class="st0" d="M78.17,56.03c-0.09,0.12-0.14,0.27-0.19,0.41c-0.95,2.83-1.9,5.66-2.85,8.49c-0.05,0.15-0.08,0.31-0.12,0.47
		c-0.04,0.15,0.02,0.27,0.1,0.38c0.27,0.34,0.84,0.27,1.03-0.12c0.05-0.1,0.08-0.21,0.12-0.32c0.88-2.64,1.77-5.28,2.65-7.92
		c0.05-0.15,0.11-0.31,0.09-0.43c0-0.41-0.19-0.71-0.4-0.99C78.47,55.81,78.3,55.84,78.17,56.03z"/>
	<path class="st0" d="M76.92,33.32c-0.22,0.76-0.45,1.51-0.67,2.26c-0.15,0.52-0.3,1.03-0.47,1.54c-0.15,0.45-0.34,0.67-0.94,0.69
		c-0.05,0-0.1,0-0.15,0c-2.06,0-4.11,0-6.17,0c-0.1,0-0.2,0.01-0.3-0.01c-0.36-0.05-0.64-0.21-0.74-0.58
		c-0.04-0.16-0.1-0.31-0.14-0.47c-0.29-1.09-0.59-2.17-0.87-3.26c-0.05-0.18-0.08-0.37-0.16-0.54c-0.1-0.21-0.28-0.35-0.5-0.33
		c-0.3,0.03-0.59,0.09-0.88,0.17c-0.21,0.06-0.34,0.21-0.32,0.45c0.01,0.1,0,0.2,0.02,0.3c0.1,0.46,0.21,0.92,0.32,1.39
		c0.37,1.62,0.73,3.24,1.1,4.86c0.27,1.18,0.55,2.36,0.81,3.54c0.11,0.49,0.35,0.82,0.81,1.04c1.51,0.74,3.13,1,4.86,1.07
		c0.25,0.05,0.55-0.08,0.86-0.08c0.6,0.01,1.19-0.11,1.78-0.24c0.33-0.07,0.55-0.27,0.63-0.62c0.08-0.35,0.19-0.7,0.28-1.05
		c0.77-3.01,1.53-6.03,2.3-9.04c0.08-0.3,0.16-0.61,0.23-0.91c0.09-0.4-0.02-0.58-0.42-0.68c-0.17-0.05-0.34-0.05-0.52-0.07
		C77.27,32.74,77.05,32.87,76.92,33.32z"/>
	<path class="st0" d="M85.55,18.35c0.2,0.21,0.41,0.41,0.61,0.62c0.27,0.29,0.54,0.59,0.81,0.89c0.18,0.2,0.39,0.21,0.61,0.11
		c0.16-0.07,0.31-0.17,0.46-0.25c0.93-0.49,1.91-0.81,2.98-0.76c0.24,0.01,0.45,0.08,0.62,0.23c0.4,0.37,0.8,0.76,1.11,1.22
		c0.32,0.48,0.57,1,0.8,1.53c0.18,0.41,0.26,0.44,0.77,0.4c0.02,0,0.05-0.01,0.07-0.02c0.56-0.12,1.12-0.26,1.7-0.28
		c0.15,0,0.3-0.04,0.44-0.08c0.27-0.07,0.36-0.25,0.25-0.52c-0.02-0.06-0.05-0.11-0.09-0.17c-0.28-0.44-0.66-0.75-1.15-0.91
		c-0.22-0.07-0.46-0.12-0.69-0.16c-0.38-0.06-0.56-0.3-0.65-0.64c-0.05-0.18-0.08-0.37-0.12-0.55c-0.24-0.91-0.67-1.72-1.29-2.43
		c-0.25-0.28-0.56-0.49-0.95-0.44c-0.59,0.08-1.17,0.23-1.72,0.5c-0.53,0.27-1.01,0.59-1.47,0.97c-0.28,0.23-0.59,0.32-0.93,0.11
		c-0.07-0.05-0.15-0.09-0.23-0.13c-0.33-0.19-0.68-0.31-1.12-0.25c-0.13,0-0.31-0.01-0.48,0c-0.11,0.01-0.22,0.06-0.32,0.11
		c-0.4,0.17-0.45,0.34-0.19,0.68C85.43,18.23,85.49,18.29,85.55,18.35z"/>
	<path class="st0" d="M66.23,51.95c-0.37,0.46-0.74,0.91-1.11,1.36c-0.49,0.6-0.97,1.21-1.46,1.81c-0.49,0.6-0.99,1.19-1.47,1.79
		c-0.59,0.73-1.17,1.46-1.76,2.19c-0.61,0.75-1.23,1.48-1.84,2.23c-0.64,0.78-1.28,1.57-1.91,2.36c-0.15,0.18-0.3,0.37-0.43,0.56
		c-0.27,0.37-0.23,0.55,0.14,0.79c0.12,0.07,0.24,0.14,0.36,0.21c1.1,0.6,2.05,1.39,2.82,2.38c0.65,0.83,1.2,1.72,1.66,2.67
		c0.43,0.88,0.84,1.76,1.29,2.63c0.57,1.1,1.17,2.19,2.14,3c0.52,0.44,1.09,0.76,1.75,0.91c0.25,0.06,0.44-0.02,0.58-0.23
		c0.05-0.08,0.1-0.18,0.12-0.27c0.18-0.57,0.35-1.15,0.52-1.72c0.37-1.22,0.73-2.44,1.1-3.66c0.28-0.93,0.57-1.86,0.85-2.8
		c0.36-1.21,0.72-2.42,1.09-3.63c0.54-1.77,1.08-3.54,1.62-5.31c0.44-1.45,0.87-2.9,1.3-4.34c0.52-1.73,1.05-3.47,1.58-5.2
		c0.04-0.13,0.1-0.26,0.08-0.39c0-0.34-0.06-0.4-0.39-0.42c-0.28-0.01-0.55,0.06-0.82,0.07c-1.26,0.01-2.52,0.05-3.77-0.2
		c-1.26-0.25-2.47-0.62-3.62-1.19c-0.27-0.13-0.54-0.27-0.81-0.4c-0.27-0.14-0.54-0.19-0.83-0.07c-0.21,0.08-0.43,0.13-0.64,0.2
		c-2.31,0.74-4.62,1.49-6.93,2.23c-2.84,0.92-5.69,1.84-8.53,2.76c-0.52,0.17-1.05,0.32-1.57,0.52c-0.5,0.19-0.52,0.4-0.09,0.72
		c0.92,0.67,1.71,1.46,2.34,2.41c0.72,1.08,1.19,2.28,1.55,3.53c0.5,1.76,0.73,3.57,1.04,5.36c0.19,1.08,0.41,2.16,0.79,3.19
		c0.24,0.65,0.55,1.26,0.98,1.81c0.09,0.11,0.18,0.21,0.31,0.27c0.15,0.07,0.22,0.04,0.3-0.11c0.08-0.14,0.06-0.29,0.07-0.44
		c0.04-0.65-0.1-1.3-0.08-1.95c0.02-0.45,0.01-0.9,0-1.35c0-0.15-0.01-0.3-0.03-0.45c-0.07-0.45-0.01-0.88,0.27-1.25
		c0.38-0.51,0.79-1,1.19-1.49c0.49-0.61,0.99-1.22,1.49-1.83c0.48-0.59,0.96-1.18,1.44-1.78c0.39-0.47,0.78-0.95,1.16-1.42
		c0.5-0.61,0.99-1.22,1.49-1.83c0.37-0.46,0.74-0.91,1.11-1.36c0.38-0.47,0.75-0.93,1.13-1.4c0.39-0.49,0.79-0.97,1.18-1.45
		c0.25-0.31,0.49-0.63,0.79-0.9c0.22-0.2,0.42-0.22,0.61-0.07c0.19,0.14,0.23,0.38,0.09,0.64C66.4,51.73,66.31,51.84,66.23,51.95z"
		/>
	<path class="st0" d="M58.08,101.57c-0.49-0.74-1.07-1.38-1.81-1.88c-0.74-0.51-1.56-0.85-2.42-1.09c-0.97-0.28-1.97-0.43-2.97-0.59
		c-0.99-0.16-1.97-0.32-2.94-0.56c-0.77-0.19-1.52-0.42-2.22-0.79c-1.14-0.61-2.2-1.34-3.24-2.09c-0.83-0.6-1.64-1.23-2.43-1.89
		c-0.62-0.52-1.25-1.04-1.82-1.62c-0.39-0.39-0.79-0.77-1.13-1.21c-0.22-0.29-0.44-0.58-0.6-0.9c-0.27-0.55-0.19-0.84,0.31-1.18
		c0.04-0.03,0.08-0.05,0.13-0.08c0.54-0.29,1.08-0.58,1.61-0.88c1.02-0.58,2.05-1.15,3.07-1.74c1.31-0.76,2.6-1.55,3.87-2.38
		c1.68-1.11,3.36-2.22,4.86-3.58c0.2-0.18,0.42-0.36,0.62-0.55c0.22-0.2,0.56-0.22,0.72-0.06c0.16,0.15,0.15,0.45-0.01,0.69
		c-0.02,0.03-0.04,0.06-0.07,0.09c-0.14,0.14-0.28,0.29-0.43,0.42c-0.42,0.36-0.85,0.7-1.26,1.06c-0.1,0.09-0.2,0.19-0.29,0.3
		c-0.13,0.17-0.08,0.33,0.14,0.4c0.06,0.02,0.12,0.03,0.18,0.03c0.82,0.04,1.65,0.11,2.48,0.08c0.14,0,0.28-0.01,0.41,0.02
		c0.49,0.1,0.97,0.04,1.46,0.05c0.25,0,0.41-0.14,0.5-0.38c0.05-0.13,0.06-0.27,0.05-0.41c-0.02-0.94,0.02-1.88-0.06-2.82
		c-0.07-0.85-0.01-1.7-0.02-2.56c-0.01-1.05-0.11-2.1-0.08-3.15c0.01-0.31-0.1-0.61-0.36-0.79c-0.2-0.15-0.37-0.33-0.56-0.5
		c-0.59-0.52-1.04-1.16-1.38-1.86c-0.61-1.27-0.93-2.64-1.16-4.02c-0.09-0.54-0.2-1.08-0.31-1.62c-0.03-0.12-0.05-0.32-0.21-0.31
		c-0.16,0.01-0.16,0.19-0.2,0.32c-0.14,0.52-0.2,1.05-0.31,1.58c-0.32,1.64-0.68,3.27-1.08,4.9c-0.12,0.49-0.22,0.97-0.19,1.48
		c0.02,0.31,0,0.63,0,0.94c0,0.48,0,0.95,0,1.43c0,0.01,0,0.03,0,0.04c-0.03,0.61-0.39,0.98-0.98,0.99
		c-0.51,0.01-1.02-0.01-1.54,0.06c-0.33,0.04-0.67,0.08-1,0.14c-0.6,0.12-1.19,0.29-1.78,0.46c-0.77,0.22-1.56,0.35-2.36,0.39
		c-0.83,0.04-1.65,0.01-2.48,0.01c-0.3,0-0.59-0.08-0.88-0.16c-0.12-0.03-0.23-0.1-0.32-0.18c-0.25-0.24-0.27-0.46-0.04-0.72
		c0.12-0.14,0.26-0.27,0.42-0.37c1.44-0.86,2.89-1.69,4.25-2.69c0.56-0.41,1.11-0.82,1.58-1.33c0.29-0.31,0.49-0.66,0.6-1.07
		c0.2-0.72,0.24-1.46,0.27-2.19c0.04-0.94,0.04-1.88,0.07-2.82c0.01-0.33-0.05-0.65-0.06-0.97c-0.03-1.23,0.04-2.45-0.06-3.68
		c-0.08-1.05-0.01-2.1-0.07-3.15c-0.07-1.03-0.05-2.08,0.07-3.11c0.07-0.59,0.17-0.97,0.93-1.21c1.38-0.45,2.76-0.9,4.14-1.35
		c2.18-0.7,4.36-1.4,6.53-2.1c0.09-0.03,0.19-0.06,0.28-0.11c0.37-0.17,0.4-0.33,0.12-0.62c-0.1-0.11-0.22-0.2-0.35-0.28
		c-1.62-1.15-3.39-1.66-5.38-1.4c-0.97,0.13-1.88,0.4-2.76,0.8c-1.48,0.67-2.79,1.61-3.98,2.71c-1,0.91-1.9,1.91-2.72,3
		c-1.07,1.41-2.02,2.89-2.81,4.47c-0.39,0.78-0.79,1.57-1.24,2.32c-0.46,0.76-0.96,1.49-1.57,2.15c-0.46,0.5-0.93,0.98-1.46,1.41
		c-0.83,0.66-1.73,1.19-2.75,1.51c-0.88,0.28-1.79,0.37-2.7,0.16c-1.31-0.29-2.25-1.05-2.73-2.33c-0.44-1.17-0.37-2.35-0.09-3.54
		c0.21-0.88,0.56-1.71,0.96-2.52c0.49-1,1-1.99,1.49-2.99c0.27-0.55,0.53-1.11,0.77-1.67c0.24-0.56,0.1-0.77-0.51-0.86
		c-0.36-0.05-0.71-0.12-1.07-0.19c-1.6-0.34-3.06-0.99-4.43-1.88c-0.47-0.3-0.66-0.27-0.96,0.19c-1.16,1.77-2.3,3.55-3.28,5.42
		c-0.78,1.5-1.46,3.04-1.91,4.68c-0.36,1.3-0.58,2.63-0.58,3.99c0,0.8,0.04,1.6,0.17,2.39c0.2,1.16,0.56,2.28,1.05,3.36
		c0.86,1.89,2.08,3.53,3.5,5.03c0.58,0.61,1.23,1.14,1.88,1.67c0.9,0.72,1.87,1.33,2.89,1.87c1.32,0.7,2.71,1.23,4.15,1.62
		c0.92,0.25,1.84,0.46,2.78,0.58c0.42,0.05,0.84,0.12,1.26,0.16c0.57,0.05,1.14,0.14,1.71,0.13c0.34,0,0.68-0.02,1.02,0
		c0.35,0.02,0.64-0.1,0.89-0.33c0.6-0.53,1.18-1.08,1.77-1.62c0.17-0.15,0.34-0.29,0.54-0.4c0.19-0.11,0.42-0.07,0.56,0.07
		c0.15,0.15,0.16,0.34,0.04,0.55c-0.09,0.15-0.19,0.29-0.34,0.39c-0.1,0.07-0.19,0.16-0.28,0.25c-0.36,0.33-0.71,0.67-1.08,0.99
		c-0.69,0.62-1.39,1.22-2.07,1.86c-0.72,0.68-1.45,1.35-2.17,2.02c-0.79,0.74-1.54,1.51-2.31,2.26c-0.38,0.38-0.76,0.76-1.12,1.16
		c-0.23,0.25-0.45,0.5-0.64,0.78c-0.22,0.33-0.19,0.55,0.1,0.84c0.35,0.34,0.69,0.69,1.06,1.01c0.81,0.68,1.66,1.32,2.52,1.95
		c1.85,1.35,3.74,2.63,5.65,3.9c1.78,1.19,3.56,2.37,5.34,3.55c0.51,0.34,0.94,0.75,1.32,1.22c0.53,0.66,1.05,1.34,1.62,1.96
		c0.95,1.03,1.96,2,3.2,2.7c1.17,0.65,2.4,1.03,3.76,0.92c0.63-0.06,0.77-0.28,0.43-0.81c-0.62-0.98-1.29-1.94-2.27-2.62
		c-0.1-0.07-0.19-0.17-0.25-0.27c-0.18-0.28-0.1-0.67,0.36-0.69c0.22-0.01,0.42,0.05,0.62,0.11c1.07,0.34,2.15,0.55,3.28,0.5
		c0.11,0,0.23,0,0.33-0.03c0.34-0.1,0.43-0.32,0.26-0.63C58.12,101.63,58.1,101.6,58.08,101.57z M20.52,64.77
		c-0.19,0.28-0.57,0.26-0.73-0.04c-0.07-0.13-0.12-0.27-0.14-0.42c-0.06-0.51-0.1-1.02-0.08-1.53c0-0.02,0-0.05,0-0.07c0,0,0,0,0,0
		c0-0.29,0-0.57,0-0.86c0-0.17,0.04-0.32,0.13-0.46c0.11-0.18,0.28-0.25,0.48-0.2c0.18,0.04,0.28,0.17,0.31,0.34
		c0.03,0.18,0.03,0.37,0.02,0.56c-0.02,0.74,0.05,1.47,0.13,2.2C20.66,64.46,20.61,64.63,20.52,64.77z M22.34,54.56
		c-0.03,0.12-0.08,0.24-0.14,0.35c-0.37,0.69-0.67,1.42-0.95,2.16c-0.03,0.09-0.08,0.18-0.13,0.26c-0.1,0.14-0.23,0.23-0.39,0.2
		c-0.32,0-0.5-0.22-0.45-0.52c0.04-0.25,0.13-0.48,0.22-0.71c0.23-0.58,0.48-1.15,0.77-1.7c0.1-0.19,0.21-0.37,0.38-0.51
		c0.18-0.14,0.3-0.15,0.48-0.04C22.3,54.16,22.39,54.36,22.34,54.56z M22.72,61.62c0.08-0.16,0.22-0.23,0.4-0.22
		c0.19-0.01,0.33,0.07,0.4,0.26c0.03,0.07,0.06,0.14,0.06,0.22c-0.01,0.93,0.13,1.83,0.34,2.74c0.05,0.21-0.04,0.39-0.23,0.51
		c-0.18,0.11-0.32,0.1-0.48-0.03c-0.14-0.12-0.22-0.27-0.27-0.44c-0.11-0.37-0.17-0.75-0.24-1.13c-0.1-0.52-0.04-1.05-0.06-1.57
		C22.64,61.83,22.67,61.72,22.72,61.62z M24.64,73.02c-0.16,0-0.29-0.06-0.4-0.17c-0.53-0.5-1-1.04-1.38-1.66
		c-0.14-0.23-0.3-0.46-0.38-0.73c-0.09-0.3-0.05-0.46,0.16-0.59c0.18-0.11,0.49-0.05,0.65,0.13c0.06,0.08,0.11,0.17,0.16,0.25
		c0.37,0.65,0.8,1.26,1.35,1.78c0.16,0.15,0.29,0.31,0.3,0.54C25.09,72.85,24.91,73.03,24.64,73.02z M25.22,55.09
		c-0.04,0.13-0.1,0.26-0.17,0.38c-0.34,0.64-0.62,1.3-0.88,1.98c-0.04,0.1-0.08,0.21-0.13,0.31c-0.14,0.26-0.34,0.35-0.59,0.28
		c-0.21-0.06-0.29-0.2-0.28-0.51c-0.01-0.25,0.09-0.47,0.18-0.68c0.23-0.58,0.47-1.15,0.77-1.7c0.11-0.2,0.22-0.4,0.4-0.54
		c0.18-0.14,0.31-0.15,0.48-0.03C25.18,54.7,25.28,54.91,25.22,55.09z M28.42,70.76c-0.16,0.01-0.3-0.05-0.43-0.11
		c-0.86-0.41-1.63-0.96-2.28-1.67c-0.25-0.27-0.17-0.63,0.15-0.77c0.13-0.06,0.24-0.04,0.36,0.03c0.15,0.09,0.3,0.18,0.42,0.3
		c0.5,0.5,1.08,0.88,1.7,1.2c0.16,0.08,0.3,0.18,0.42,0.31c0.06,0.07,0.09,0.15,0.09,0.23C28.86,70.56,28.68,70.75,28.42,70.76z
		 M33.58,76.11c-0.04,0-0.07,0-0.18,0c-0.54-0.08-1.16-0.18-1.76-0.35c-0.28-0.08-0.55-0.17-0.82-0.27
		c-0.14-0.05-0.27-0.13-0.35-0.27c-0.17-0.3,0.01-0.63,0.35-0.65c0.15-0.01,0.29,0,0.44,0.05c0.59,0.19,1.19,0.35,1.81,0.45
		c0.21,0.03,0.42,0.03,0.63,0.09c0.3,0.09,0.5,0.29,0.49,0.49C34.16,75.87,33.9,76.14,33.58,76.11z M36.67,71.52
		c-0.23,0.1-0.48,0.15-0.73,0.15c-0.34,0-0.68,0-1.01,0c-0.3,0-0.6-0.01-0.9,0c-0.27,0.02-0.52-0.08-0.78-0.09
		c-0.07,0-0.14-0.05-0.2-0.09c-0.15-0.11-0.26-0.24-0.23-0.44c0.02-0.17,0.22-0.37,0.41-0.38c0.29-0.01,0.58-0.03,0.86,0.01
		c0.57,0.07,1.14,0.08,1.71,0c0.23-0.04,0.48-0.02,0.71-0.01c0.21,0.01,0.42,0.2,0.45,0.39C37,71.22,36.89,71.43,36.67,71.52z
		 M39.28,62.24c0.06-0.14,0.13-0.27,0.25-0.37c0.63-0.54,1.21-1.12,1.74-1.75c0.13-0.15,0.28-0.29,0.43-0.42
		c0.15-0.13,0.32-0.11,0.49-0.02c0.15,0.08,0.17,0.23,0.19,0.31c0.01,0.19-0.04,0.29-0.1,0.39c-0.1,0.16-0.21,0.31-0.33,0.45
		c-0.57,0.65-1.16,1.28-1.84,1.81c-0.08,0.06-0.17,0.1-0.26,0.15c-0.18,0.11-0.34,0.04-0.47-0.08
		C39.24,62.59,39.2,62.41,39.28,62.24z M37.58,66.65c0.18-0.08,0.37-0.14,0.56-0.2c0.72-0.22,1.42-0.47,2.09-0.83
		c0.15-0.08,0.32-0.14,0.5-0.16c0.2-0.02,0.34,0.08,0.43,0.24c0.08,0.13,0.04,0.36-0.07,0.49c-0.09,0.1-0.2,0.19-0.32,0.25
		c-0.87,0.47-1.8,0.8-2.76,1.06c-0.07,0.02-0.15,0.02-0.18,0.02c-0.29,0-0.46-0.13-0.5-0.35C37.27,66.95,37.36,66.75,37.58,66.65z"
		/>
	<path class="st0" d="M60.41,71.16c0.02-0.2-0.04-0.39-0.14-0.57c-0.23-0.41-0.46-0.83-0.71-1.24c-0.69-1.12-1.53-2.1-2.63-2.84
		c-0.29-0.19-0.58-0.39-0.91-0.51c-0.24-0.08-0.38-0.01-0.47,0.23c-0.07,0.19-0.08,0.39-0.05,0.59c0.02,0.12,0.05,0.25,0.05,0.37
		c0.03,0.98-0.01,1.95,0.07,2.93c0.08,0.95,0.01,1.9,0.07,2.85c0.07,1.24,0.04,2.48,0.08,3.72c0.05,1.73,0.01,3.46,0.02,5.19
		c0,0.53-0.13,1.01-0.35,1.48c-0.41,0.89-0.99,1.68-1.57,2.46c-0.65,0.88-1.31,1.76-1.96,2.65c-0.12,0.16-0.22,0.33-0.29,0.52
		c-0.06,0.17-0.02,0.25,0.14,0.33c0.09,0.05,0.18,0.05,0.29,0.03c0.6-0.11,1.15-0.33,1.71-0.56c1.11-0.46,2.04-1.17,2.81-2.08
		c0.56-0.66,1-1.41,1.36-2.2c0.26-0.58,0.39-1.18,0.38-1.82c-0.01-1.46-0.05-2.92,0.15-4.38c0.11-0.83,0.24-1.65,0.42-2.47
		c0.33-1.48,0.79-2.92,1.46-4.28C60.4,71.43,60.43,71.3,60.41,71.16z"/>
	<path class="st0" d="M112.41,82.25c0.17-0.15,0.33-0.31,0.48-0.48c0.16-0.18,0.27-0.39,0.26-0.68c0-0.02-0.01-0.08-0.02-0.15
		c-0.2-0.98-0.47-1.94-0.88-2.86c-0.48-1.08-1.13-2.06-1.96-2.91c-0.73-0.76-1.57-1.38-2.46-1.95c-0.74-0.47-1.52-0.86-2.29-1.28
		c-0.52-0.28-1.04-0.55-1.55-0.85c-0.33-0.19-0.5-0.12-0.6,0.26c-0.07,0.25-0.09,0.51-0.13,0.77c-0.03,0.2,0.06,0.36,0.21,0.5
		c0.12,0.12,0.26,0.19,0.41,0.27c0.71,0.37,1.41,0.76,2.08,1.19c1.21,0.79,2.31,1.7,3.2,2.85c0.93,1.2,1.65,2.5,2.18,3.91
		c0.15,0.41,0.29,0.83,0.44,1.24C111.9,82.43,112.15,82.49,112.41,82.25z"/>
	<path class="st0" d="M116.93,89.44c-0.04-0.46-0.1-0.92-0.19-1.37c-0.34-1.66-1.03-3.18-2.05-4.54c-0.19-0.26-0.39-0.52-0.63-0.74
		c-0.28-0.25-0.41-0.26-0.72-0.04c-0.05,0.04-0.11,0.07-0.14,0.12c-0.27,0.34-0.56,0.67-0.78,1.05c-0.58,1.02-0.78,2.1-0.5,3.24
		c0.18,0.74,0.58,1.38,1.01,2c0.49,0.71,1.1,1.33,1.68,1.96c0.55,0.6,1.09,1.2,1.53,1.89c0.08,0.13,0.18,0.3,0.37,0.26
		c0.19-0.04,0.22-0.22,0.25-0.38c0.14-0.77,0.23-1.55,0.23-2.34C116.99,90.18,116.96,89.81,116.93,89.44z"/>
	<path class="st0" d="M84.86,93.07c0.77-0.21,1.55-0.41,2.3-0.67c1.61-0.56,3.21-1.12,4.81-1.69c1.33-0.47,2.65-1,3.9-1.65
		c0.44-0.23,0.87-0.49,1.25-0.82c0.37-0.33,0.47-0.68,0.29-1.14c-0.15-0.4-0.37-0.76-0.62-1.11c-0.44-0.62-0.93-1.2-1.35-1.84
		c-0.63-0.98-0.99-2.03-0.96-3.21c0.02-1.05,0.36-1.95,1.11-2.7c0.5-0.5,1.06-0.92,1.64-1.31c0.82-0.56,1.65-1.09,2.44-1.68
		c0.82-0.61,1.58-1.27,2.11-2.15c0.37-0.61,0.58-1.27,0.6-1.99c0.02-0.83-0.28-1.57-0.68-2.27c-0.68-1.18-1.61-2.16-2.56-3.12
		c-0.22-0.22-0.47-0.42-0.69-0.64c-0.38-0.36-0.75-0.74-1.16-1.07c-0.25-0.21-0.48-0.44-0.73-0.65c-0.43-0.36-0.86-0.73-1.26-1.12
		c-0.38-0.38-0.76-0.76-1.14-1.14c-0.68-0.67-1.16-1.46-1.5-2.35c-0.59-1.57-1.17-3.14-1.9-4.66c-0.69-1.45-1.48-2.83-2.54-4.06
		c-0.47-0.55-1-1.02-1.56-1.45c-0.32-0.24-0.58-0.18-0.79,0.15c-0.05,0.07-0.08,0.16-0.12,0.23c-0.25,0.48-0.49,0.96-0.76,1.43
		c-0.4,0.71-0.83,1.4-1.25,2.1c-0.12,0.2-0.18,0.41-0.22,0.63c-0.07,0.44-0.14,0.89-0.23,1.32c-0.17,0.81-0.4,1.61-0.85,2.31
		c-0.24,0.39-0.43,0.78-0.57,1.21c-0.23,0.7-0.57,1.33-1.15,1.82c-0.42,0.36-0.89,0.66-1.39,0.89c-0.44,0.2-0.68,0.51-0.83,0.95
		c-0.48,1.47-0.98,2.94-1.48,4.41c-0.07,0.21-0.14,0.43-0.23,0.64c-0.17,0.42-0.45,0.58-0.89,0.48c-0.56-0.13-1.1-0.33-1.64-0.53
		c-0.05-0.02-0.09-0.04-0.13-0.07c-0.3-0.18-0.41-0.46-0.32-0.8c0.04-0.14,0.08-0.29,0.13-0.43c1.21-3.62,2.42-7.23,3.63-10.85
		c0.41-1.23,0.82-2.47,1.23-3.7c0.05-0.15,0.1-0.31,0.08-0.48c-0.02-0.2-0.11-0.25-0.27-0.14c-0.21,0.14-0.41,0.3-0.56,0.5
		c-0.16,0.21-0.35,0.4-0.53,0.58c-0.69,0.69-1.36,1.4-2.14,2c-0.28,0.21-0.45,0.49-0.55,0.83c-0.3,1.02-0.62,2.03-0.93,3.05
		c-0.37,1.22-0.73,2.44-1.1,3.66c-0.28,0.93-0.57,1.86-0.85,2.8c-0.36,1.21-0.72,2.42-1.09,3.63c-0.54,1.79-1.09,3.59-1.63,5.38
		c-0.43,1.44-0.86,2.87-1.3,4.31c-0.07,0.23-0.15,0.45-0.25,0.67c-0.16,0.34-0.46,0.49-0.83,0.44c-0.09-0.01-0.17-0.05-0.26-0.06
		c-1.16-0.2-2.15-0.75-2.98-1.55c-0.48-0.46-0.87-1-1.22-1.57c-0.33-0.55-0.64-1.1-0.92-1.68c-0.04-0.09-0.09-0.18-0.15-0.26
		c-0.17-0.22-0.36-0.22-0.51,0.01c-0.07,0.1-0.12,0.22-0.16,0.34c-0.37,0.91-0.62,1.85-0.84,2.8c-0.21,0.91-0.36,1.83-0.46,2.76
		c-0.08,0.77-0.15,1.54-0.14,2.32c0,0.47,0.2,0.63,0.62,0.7c0.07,0.01,0.15,0.01,0.23,0.01c1.63,0.03,3.26-0.04,4.89,0.05
		c0.82,0.04,1.65-0.01,2.48,0.01c0.7,0.02,1.4-0.06,2.1-0.07c1.47-0.02,2.93,0.05,4.4-0.05c1.05-0.07,2.1,0.02,2.98-0.1
		c0.88,0.04,1.57-0.12,2.27-0.07c0.01,0,0.03,0,0.04,0c0.59-0.1,0.74-0.26,0.4-0.82c-1.01-1.67-1.43-3.5-1.48-5.43
		c0-0.22,0.08-0.42,0.08-0.63c-0.02-0.64,0.11-1.27,0.25-1.89c0.32-1.37,0.83-2.67,1.49-3.92c0.08-0.16,0.18-0.3,0.32-0.41
		c0.19-0.16,0.36-0.18,0.55-0.06c0.17,0.11,0.24,0.32,0.18,0.53c-0.04,0.13-0.11,0.25-0.17,0.38c-0.37,0.7-0.68,1.42-0.96,2.16
		c-0.39,1.05-0.63,2.14-0.71,3.25c-0.06,0.81-0.03,1.62,0.13,2.43c0.23,1.21,0.65,2.33,1.32,3.36c0.47,0.73,1.05,1.36,1.67,1.97
		c0.82,0.8,1.76,1.44,2.76,1.99c1.64,0.9,3.39,1.54,5.21,1.99c0.18,0.05,0.36,0.1,0.52,0.2c0.28,0.16,0.35,0.48,0.16,0.73
		c-0.1,0.13-0.23,0.23-0.38,0.3c-0.59,0.27-1.18,0.54-1.78,0.81c-1.3,0.59-2.6,1.17-3.9,1.75c-1.1,0.49-2.2,0.97-3.29,1.47
		c-1.26,0.57-2.52,1.17-3.79,1.74c-1.48,0.67-2.94,1.39-4.39,2.13c-0.31,0.16-0.61,0.26-0.97,0.24c-0.74-0.04-1.47,0.04-2.2,0.19
		c-1.09,0.23-2.1,0.65-3.07,1.18c-0.64,0.35-1.22,0.79-1.75,1.28c-0.67,0.62-1.19,1.35-1.54,2.2c-0.18,0.44-0.35,0.89-0.37,1.37
		c-0.02,0.49,0.18,0.45,0.5,0.43c0.05,0,0.1-0.02,0.14-0.04c0.97-0.41,1.91-0.88,2.77-1.49c0.17-0.12,0.35-0.25,0.53-0.35
		c0.21-0.12,0.52-0.09,0.63,0.04c0.12,0.13,0.11,0.47-0.02,0.67c-0.01,0.01-0.01,0.02-0.02,0.03c-0.12,0.15-0.23,0.29-0.35,0.44
		c-0.61,0.71-1.06,1.51-1.43,2.37c-0.13,0.3-0.23,0.61-0.31,0.92c-0.07,0.29,0.07,0.49,0.38,0.51c0.06,0,0.13,0,0.19-0.01
		c0.34-0.08,0.68-0.14,1.02-0.26c1.57-0.53,2.93-1.4,4.11-2.54c0.52-0.5,1.04-1.01,1.49-1.59c0.59-0.75,1.09-1.56,1.55-2.39
		c0.45-0.82,1.08-1.48,1.77-2.07c0.98-0.84,2.11-1.43,3.29-1.94C81.41,94.05,83.13,93.55,84.86,93.07z M92.54,67.77
		c0.12-0.12,0.28-0.16,0.45-0.09c0.14,0.06,0.27,0.13,0.37,0.25c0.64,0.78,1.36,1.46,2.18,2.05c0.24,0.17,0.35,0.35,0.35,0.55
		c0,0.34-0.3,0.53-0.62,0.4c-0.19-0.08-0.35-0.19-0.51-0.31c-0.72-0.53-1.35-1.15-1.95-1.8c-0.15-0.17-0.28-0.35-0.37-0.56
		C92.35,68.06,92.41,67.9,92.54,67.77z M71.95,76.92c-0.1,0.53-0.16,1.06-0.13,1.6c0.01,0.18-0.01,0.35-0.08,0.51
		c-0.08,0.18-0.2,0.31-0.42,0.31c-0.2,0-0.34-0.09-0.41-0.31c-0.07-0.2-0.12-0.41-0.1-0.63c0.09-0.73,0.09-1.47,0.31-2.17
		c0.03-0.08,0.05-0.17,0.09-0.25c0.09-0.18,0.3-0.3,0.45-0.27c0.23,0.04,0.37,0.2,0.4,0.44C72.07,76.41,71.99,76.67,71.95,76.92z
		 M73.84,68.8c-0.29,0.68-0.54,1.37-0.69,2.1c-0.02,0.11-0.07,0.22-0.12,0.31c-0.11,0.2-0.33,0.32-0.49,0.28
		c-0.23-0.06-0.39-0.29-0.39-0.57c0.02-0.09,0.04-0.21,0.07-0.33c0.16-0.72,0.38-1.42,0.7-2.09c0.06-0.13,0.13-0.24,0.23-0.34
		c0.14-0.14,0.35-0.18,0.52-0.1c0.18,0.09,0.25,0.23,0.24,0.43C73.91,68.59,73.89,68.7,73.84,68.8z M75.11,77.2
		c-0.07,0.48-0.1,0.96-0.13,1.45c-0.01,0.1,0.01,0.2-0.01,0.3c-0.05,0.26-0.21,0.4-0.46,0.4c-0.25,0-0.41-0.14-0.46-0.4
		c0-0.02-0.01-0.05-0.01-0.07c0-0.2,0-0.4,0-0.57c-0.02-0.67,0.1-1.3,0.22-1.92c0.02-0.11,0.06-0.22,0.11-0.32
		c0.13-0.28,0.31-0.36,0.57-0.28c0.21,0.06,0.37,0.33,0.32,0.57C75.2,76.64,75.15,76.92,75.11,77.2z M77.01,69.46
		c-0.14,0.43-0.31,0.84-0.45,1.27c-0.12,0.38-0.22,0.77-0.33,1.15c-0.04,0.12-0.06,0.24-0.17,0.33c-0.14,0.12-0.3,0.19-0.48,0.1
		c-0.17-0.08-0.28-0.2-0.27-0.41c0-0.05,0-0.1,0-0.14c-0.02-0.33,0.09-0.63,0.18-0.92c0.13-0.45,0.31-0.9,0.48-1.34
		c0.06-0.15,0.14-0.29,0.24-0.42c0.15-0.21,0.38-0.27,0.59-0.18C76.99,68.98,77.09,69.21,77.01,69.46z M89.06,61.78
		c0.14,0,0.3,0.09,0.4,0.23c0.48,0.68,1.07,1.25,1.59,1.89c0.09,0.11,0.15,0.22,0.16,0.37c0.01,0.35-0.29,0.57-0.6,0.42
		c-0.18-0.08-0.36-0.19-0.48-0.35c-0.39-0.49-0.84-0.92-1.21-1.43c-0.12-0.16-0.24-0.32-0.31-0.51
		C88.49,62.08,88.68,61.78,89.06,61.78z M91.3,73.18c0.01,0.13-0.1,0.26-0.25,0.33c-0.15,0.07-0.32,0.08-0.45-0.05
		c-0.12-0.11-0.23-0.22-0.32-0.36c-0.5-0.76-0.97-1.54-1.44-2.32c-0.08-0.14-0.14-0.29-0.13-0.46c0.01-0.18,0.09-0.32,0.26-0.38
		c0.16-0.06,0.31-0.05,0.46,0.07c0.22,0.18,0.35,0.43,0.49,0.66c0.37,0.61,0.74,1.21,1.13,1.81C91.16,72.67,91.3,72.87,91.3,73.18z
		 M85.88,55.96c0.18-0.06,0.37-0.09,0.53,0.06c0.1,0.1,0.18,0.2,0.26,0.32c0.33,0.54,0.67,1.08,1.13,1.53
		c0.13,0.13,0.25,0.28,0.35,0.44c0.15,0.23,0.06,0.56-0.17,0.68c-0.2,0.1-0.36,0.03-0.52-0.09c-0.24-0.18-0.44-0.41-0.64-0.63
		c-0.41-0.46-0.76-0.96-1.04-1.5c-0.06-0.12-0.12-0.25-0.1-0.33C85.69,56.19,85.69,56.02,85.88,55.96z M84.95,71.74
		c-0.07,0.52-0.15,1.04-0.12,1.56c0.02,0.31,0.09,0.62,0.08,0.93c-0.01,0.17-0.08,0.28-0.2,0.38c-0.24,0.18-0.49,0.13-0.63-0.13
		c-0.12-0.24-0.18-0.49-0.19-0.76c0-0.25,0-0.5,0-0.75c0-0.41-0.03-0.83,0.08-1.23c0.02-0.07,0.03-0.15,0.05-0.22
		c0.1-0.34,0.31-0.48,0.6-0.41C84.84,71.16,84.99,71.46,84.95,71.74z M84.99,63.84c-0.02-0.08,0-0.15,0.01-0.22
		c0.03-0.16,0.1-0.29,0.27-0.32c0.19-0.04,0.37-0.05,0.51,0.14c0.12,0.17,0.19,0.35,0.25,0.54c0.13,0.38,0.29,0.74,0.51,1.08
		c0.18,0.29,0.37,0.56,0.62,0.8c0.15,0.14,0.26,0.31,0.34,0.49c0.12,0.27-0.09,0.57-0.4,0.57c-0.14,0.01-0.27-0.04-0.37-0.13
		C85.83,65.99,85.26,65,84.99,63.84z M88.8,81.41c-0.1,0.17-0.24,0.21-0.39,0.19c-0.27,0.01-0.46-0.12-0.65-0.24
		c-0.76-0.52-1.41-1.14-1.84-1.97c-0.08-0.15-0.15-0.32-0.2-0.48c-0.06-0.18,0.01-0.38,0.15-0.47c0.17-0.12,0.35-0.12,0.52,0
		c0.16,0.11,0.27,0.26,0.36,0.43c0.38,0.72,0.94,1.28,1.62,1.72c0.15,0.1,0.28,0.2,0.39,0.35C88.87,81.08,88.9,81.24,88.8,81.41z
		 M90.82,79.77c-0.55-0.7-0.99-1.46-1.24-2.33c-0.03-0.11-0.06-0.22-0.02-0.33c0.08-0.19,0.21-0.34,0.41-0.34
		c0.21-0.01,0.38,0.12,0.48,0.31c0.08,0.15,0.15,0.32,0.21,0.48c0.21,0.58,0.54,1.09,0.91,1.58c0.1,0.13,0.18,0.27,0.18,0.44
		c0,0.3-0.17,0.46-0.48,0.43C91.08,80,90.93,79.92,90.82,79.77z"/>
	<path class="st0" d="M103.46,87.31c-0.3-0.48-0.64-0.93-0.98-1.37c-0.62-0.8-1.25-1.59-1.76-2.47c-0.48-0.81-0.87-1.66-1.07-2.59
		c-0.09-0.39-0.09-0.79-0.13-1.19c-0.04-0.44,0.01-0.87,0.06-1.3c0.05-0.5,0.18-0.98,0.31-1.46c0.03-0.11,0.05-0.23-0.05-0.31
		c-0.1-0.08-0.22-0.07-0.32-0.02c-0.13,0.07-0.26,0.14-0.39,0.23c-0.87,0.58-1.76,1.15-2.56,1.83c-0.35,0.3-0.63,0.65-0.82,1.06
		c-0.34,0.7-0.28,1.44-0.19,2.17c0.1,0.75,0.47,1.39,0.9,2c0.37,0.52,0.76,1.02,1.14,1.54c0.38,0.53,0.72,1.08,0.88,1.73
		c0.09,0.36,0.1,0.73-0.06,1.06c-0.16,0.33-0.39,0.61-0.68,0.84c-0.08,0.06-0.17,0.12-0.23,0.19c-0.2,0.21-0.21,0.36-0.06,0.6
		c0.04,0.06,0.08,0.13,0.12,0.19c0.31,0.41,0.31,0.76-0.04,1.14c-0.2,0.21-0.38,0.44-0.57,0.64c-0.6,0.64-1.18,1.3-1.78,1.93
		c-0.8,0.83-1.56,1.7-2.4,2.49c-0.07,0.07-0.14,0.14-0.21,0.22c-1.18,1.21-2.36,2.42-3.66,3.5c-0.45,0.37-0.93,0.68-1.49,0.84
		c-0.6,0.17-1.2,0.35-1.8,0.54c-1.31,0.4-2.6,0.83-3.79,1.51c-0.84,0.49-1.57,1.11-2.15,1.9c-0.46,0.63-0.78,1.34-1,2.09
		c-0.07,0.23-0.14,0.45-0.16,0.69c-0.03,0.41,0.1,0.55,0.51,0.54c0.06,0,0.13,0,0.19-0.02c0.51-0.12,1.01-0.3,1.46-0.57
		c0.66-0.4,1.25-0.87,1.77-1.43c0.14-0.15,0.29-0.28,0.47-0.37c0.21-0.11,0.4-0.08,0.55,0.07c0.14,0.15,0.12,0.32,0.06,0.49
		c-0.08,0.2-0.21,0.37-0.36,0.52c-0.58,0.56-1.02,1.23-1.36,1.96c-0.26,0.55-0.35,1.14-0.41,1.67c0,0.72,0.26,0.92,0.89,0.79
		c1.36-0.27,2.43-1.02,3.37-1.98c0.47-0.48,0.88-1.02,1.26-1.58c0.85-1.26,1.48-2.64,2.07-4.03c0.26-0.61,0.56-1.19,1.08-1.65
		c0.39-0.34,0.74-0.71,1.12-1.05c0.84-0.77,1.68-1.53,2.53-2.29c0.5-0.45,1-0.91,1.51-1.36c0.7-0.62,1.37-1.28,2.07-1.9
		c0.4-0.36,0.78-0.75,1.18-1.1c0.72-0.63,1.4-1.29,2.08-1.95c0.73-0.72,1.48-1.42,2.15-2.2c0.3-0.35,0.6-0.7,0.89-1.07
		c0.31-0.4,0.32-0.82,0.1-1.27C103.61,87.57,103.54,87.44,103.46,87.31z"/>
</g>
</svg>
